<?xml version="1.0" standalone="no"?>
<!DOCTYPE svg PUBLIC "-//W3C//DTD SVG 20010904//EN"
 "http://www.w3.org/TR/2001/REC-SVG-20010904/DTD/svg10.dtd">
<svg version="1.0" xmlns="http://www.w3.org/2000/svg"
 width="260.000000pt" height="260.000000pt" viewBox="0 0 260.000000 260.000000"
 preserveAspectRatio="xMidYMid meet">
<metadata>
Created by potrace 1.11, written by Peter Selinger 2001-2013
</metadata>
<g transform="translate(0.000000,260.000000) scale(0.100000,-0.100000)"
fill="#000000" stroke="none">
<path d="M0 1300 l0 -1300 1300 0 1300 0 0 1300 0 1300 -1300 0 -1300 0 0
-1300z m2399 0 l0 -1099 -1097 2 -1097 2 -2 1097 -3 1098 1100 -1 1099 0 0
-1099z"/>
<path d="M996 1435 c15 -11 18 -29 19 -126 1 -76 -2 -121 -11 -135 -12 -20
-10 -21 42 -21 50 0 67 8 45 21 -9 6 -9 102 1 111 3 4 17 -9 30 -27 83 -113
74 -106 122 -105 34 0 42 3 32 11 -7 6 -32 36 -54 67 l-41 56 29 21 c48 36 43
98 -9 122 -14 7 -70 14 -124 16 -84 2 -96 1 -81 -11z m158 -21 c24 -24 20 -80
-6 -98 -12 -9 -32 -16 -43 -16 -19 0 -21 6 -21 65 0 64 0 65 27 65 15 0 35 -7
43 -16z"/>
<path d="M1385 1431 c-45 -27 -63 -52 -74 -100 -12 -53 -8 -75 21 -117 40 -58
131 -81 223 -56 27 8 30 13 33 55 2 26 7 47 13 47 5 0 9 4 9 8 0 5 -30 9 -67
9 -41 1 -60 -2 -48 -6 34 -13 40 -93 8 -105 -8 -4 -32 -2 -52 4 -57 15 -72 59
-63 187 3 30 42 72 72 77 38 6 87 -19 110 -56 l20 -33 0 54 c0 45 -2 52 -14
42 -11 -9 -20 -9 -35 -2 -32 18 -122 13 -156 -8z"/>
</g>
</svg>
